<svg id="Ratch-logo" xmlns="http://www.w3.org/2000/svg" width="163.5" height="43.261" viewBox="0 0 163.5 43.261">
  <g id="Group_29" data-name="Group 29" transform="translate(0 0)">
    <g id="Group_27" data-name="Group 27" transform="translate(42.899 5.641)">
      <path id="Path_22" data-name="Path 22" d="M720.1,129.437h-4.559a7.1,7.1,0,1,1,0-6.724H720.1a11.318,11.318,0,1,0,0,6.724Z" transform="translate(-625.733 -114.526)" fill="#003b87"/>
      <path id="Path_23" data-name="Path 23" d="M573.138,117.382h8.029v19.405h4.573V117.382h8.082v-3.545H573.138Z" transform="translate(-523.309 -113.771)" fill="#003b87"/>
      <path id="Path_24" data-name="Path 24" d="M317.87,134.191l-.657-3.483a5.5,5.5,0,0,0-.343-1.181,6.368,6.368,0,0,0-.57-1.088,5.806,5.806,0,0,0-.758-.931,5.631,5.631,0,0,0-.907-.729l-.912-.583.966-.484a8.285,8.285,0,0,0,1.466-.934,5.363,5.363,0,0,0,1.064-1.156,5.007,5.007,0,0,0,.671-1.47,6.891,6.891,0,0,0,.261-1.881,7.633,7.633,0,0,0-.429-2.478,5.112,5.112,0,0,0-1.288-2.007,6.559,6.559,0,0,0-2.415-1.408,11.747,11.747,0,0,0-3.826-.54H295.617v22.945h4.592v-9.426h7.3a6.637,6.637,0,0,1,1.615.236l.131.042.081.026,0,0a4.258,4.258,0,0,1,.694.316,5.517,5.517,0,0,1,.8.576,5.274,5.274,0,0,1,.758.826,5.434,5.434,0,0,1,.571.965,4.487,4.487,0,0,1,.344,1.048l.656,3.09a9.9,9.9,0,0,0,.57,1.865c.066.153.137.3.206.436l0-.008,0,.008h4.707c-.07-.155-.14-.319-.206-.491A12.141,12.141,0,0,1,317.87,134.191ZM313.4,121.605a2.9,2.9,0,0,1-.65,1.112,3.227,3.227,0,0,1-1.237.8,5.288,5.288,0,0,1-1.854.284h-9.446v-6.416h9.781a4.539,4.539,0,0,1,1.484.228,3.349,3.349,0,0,1,1.132.644,2.816,2.816,0,0,1,.721,1,3.065,3.065,0,0,1,.243,1.218A3.962,3.962,0,0,1,313.4,121.605Z" transform="translate(-295.617 -113.773)" fill="#003b87"/>
      <path id="Path_25" data-name="Path 25" d="M860.528,113.762v7a2.7,2.7,0,0,1-2.7,2.7h-7.349a2.7,2.7,0,0,1-2.7-2.7v-7h-4.782v22.951h4.782v-7a2.7,2.7,0,0,1,2.7-2.7h7.349a2.7,2.7,0,0,1,2.7,2.7v7h4.783V113.762Z" transform="translate(-744.71 -113.71)" fill="#003b87"/>
      <path id="Path_26" data-name="Path 26" d="M444.144,136.482h5.332l8.272-13.99,8.272,13.99h5.333l-13.605-23.009Z" transform="translate(-417.476 -113.473)" fill="#003b87"/>
    </g>
    <g id="Group_28" data-name="Group 28">
      <path id="Path_27" data-name="Path 27" d="M113.945,178.846a19.77,19.77,0,0,1-8.4-1.875c.284-1.916,1.817-4.43,4.508-7.049a33.073,33.073,0,0,1,6.3-4.764v-.005l.692-.431a2.33,2.33,0,0,0-1.359-4.229c-.066,0-.129.007-.194.013a2.812,2.812,0,0,0-1,.326,1.6,1.6,0,0,0-.147.086,39.788,39.788,0,0,0-7.773,5.832c-4.317,4.2-6.13,8.173-5.2,10.5a4.808,4.808,0,0,0,2.123,1.59,19.752,19.752,0,0,0,4.248,1.46c-.083-.02-.161-.045-.24-.069a19.819,19.819,0,0,0,20.013-6.742A19.808,19.808,0,0,1,113.945,178.846Z" transform="translate(-93.154 -146.41)" fill="#003b87"/>
      <path id="Path_28" data-name="Path 28" d="M82.59,83.594a3.045,3.045,0,0,0-.908-1c-1.145-.832-2.93-.5-3.8-.267A41.685,41.685,0,0,0,62.14,91.958a27.214,27.214,0,0,0-4.374,5.352c-.019.031-.034.058-.055.089l-.022.036c-.143.243-.273.482-.4.718-1.205,2.584-.339,5.388.34,6.92.187.394.385.783.6,1.162-.1-2.689,2.015-6.551,6.174-10.6,5.058-4.925,11.75-8.776,17.191-10.212l.088-.029c.868-.271,1.131-.694,1.119-1.122A1.757,1.757,0,0,0,82.59,83.594Z" transform="translate(-56.693 -82.056)" fill="#7eaf00"/>
      <path id="Path_29" data-name="Path 29" d="M99.1,111.93l.088-.019c2.182-.413,2.147-1.648,2-2.222a3.925,3.925,0,0,0-.438-.951c-.046-.072-.092-.147-.142-.211l0,0a3.145,3.145,0,0,0-2.744-1.055c-5.712.72-13.717,4.956-19.542,10.628-3.8,3.7-5.878,7.238-6.107,9.858-.1,1.06,1.039,2.462,2.1,3.521.148.147.3.294.45.436q.2.192.39.357c.286.253.575.5.875.74-1.152-2.417.743-6.7,5.4-11.236C86.675,116.661,93.808,112.807,99.1,111.93Z" transform="translate(-69.423 -102.897)" fill="#e1001e"/>
    </g>
  </g>
  <g id="Group_30" data-name="Group 30" transform="translate(100.713 34.184)">
    <path id="Path_30" data-name="Path 30" d="M622.491,276.484h4.183v4.838h-1.086l-.261-1.026a4.287,4.287,0,0,1-.51.45,3.517,3.517,0,0,1-.676.394,4.368,4.368,0,0,1-.866.278,5.116,5.116,0,0,1-1.081.1,5.459,5.459,0,0,1-1.526-.2,4.347,4.347,0,0,1-1.182-.532,3.637,3.637,0,0,1-.864-.786,4.456,4.456,0,0,1-.579-.956,4.811,4.811,0,0,1-.326-1.04,5.573,5.573,0,0,1-.1-1.043,5.131,5.131,0,0,1,.186-1.43,4.223,4.223,0,0,1,.514-1.143,3.911,3.911,0,0,1,.769-.87,4.411,4.411,0,0,1,.951-.609,4.8,4.8,0,0,1,1.064-.357,5.34,5.34,0,0,1,1.1-.116,7.285,7.285,0,0,1,.9.056,5.111,5.111,0,0,1,.891.191,4.165,4.165,0,0,1,.84.366,3.294,3.294,0,0,1,.74.581,3.669,3.669,0,0,1,.594.833,4.523,4.523,0,0,1,.4,1.126h-1.622a3.112,3.112,0,0,0-.381-.765,2.132,2.132,0,0,0-.556-.553,2.407,2.407,0,0,0-.755-.333,3.87,3.87,0,0,0-.975-.112,3.523,3.523,0,0,0-.95.121,3.05,3.05,0,0,0-.778.334,2.584,2.584,0,0,0-.6.508,3.032,3.032,0,0,0-.43.644,3.219,3.219,0,0,0-.259.737,3.634,3.634,0,0,0-.086.791,4.071,4.071,0,0,0,.118,1.019,3.067,3.067,0,0,0,.326.8,2.456,2.456,0,0,0,.5.6,2.764,2.764,0,0,0,.636.415,3.133,3.133,0,0,0,.736.24,4.118,4.118,0,0,0,.8.077,3.5,3.5,0,0,0,1.1-.163,2.7,2.7,0,0,0,.86-.459,2.411,2.411,0,0,0,.594-.707,2.548,2.548,0,0,0,.295-.9h-2.646Z" transform="translate(-617.617 -272.445)" fill="#003b87"/>
    <path id="Path_31" data-name="Path 31" d="M705.45,278.2a2.5,2.5,0,0,1,.328.282,1.826,1.826,0,0,1,.246.317,2.256,2.256,0,0,1,.179.366,3.555,3.555,0,0,1,.133.429l.385,1.525a3.406,3.406,0,0,0,.246.688,5,5,0,0,0,.259.464h-1.6a4.852,4.852,0,0,1-.226-.443,4.1,4.1,0,0,1-.235-.709l-.345-1.4a1.621,1.621,0,0,0-.155-.392,1.026,1.026,0,0,0-.281-.317,1.359,1.359,0,0,0-.448-.212,2.355,2.355,0,0,0-.645-.077h-2.716v3.55h-1.578v-8.657h5.15a3.413,3.413,0,0,1,.849.1,2.627,2.627,0,0,1,.667.266,2.07,2.07,0,0,1,.5.4,2.252,2.252,0,0,1,.536,1.048,2.727,2.727,0,0,1,.062.573,2.464,2.464,0,0,1-.1.693,2.642,2.642,0,0,1-.27.62,2.425,2.425,0,0,1-.412.513A2.367,2.367,0,0,1,705.45,278.2Zm-1.6-.868a1.773,1.773,0,0,0,.669-.107,1.08,1.08,0,0,0,.41-.275.939.939,0,0,0,.206-.369,1.4,1.4,0,0,0,.058-.392,1.446,1.446,0,0,0-.078-.481,1.018,1.018,0,0,0-.23-.376,1.048,1.048,0,0,0-.379-.242,1.449,1.449,0,0,0-.518-.086h-3.417v2.327Z" transform="translate(-684.382 -273.404)" fill="#003b87"/>
    <path id="Path_32" data-name="Path 32" d="M770.127,277a5.6,5.6,0,0,1,.111-1.105,4.548,4.548,0,0,1,.35-1.054,4.074,4.074,0,0,1,.616-.935,3.721,3.721,0,0,1,.908-.749,4.7,4.7,0,0,1,1.223-.5,6.815,6.815,0,0,1,3.126,0,4.654,4.654,0,0,1,1.223.5,3.743,3.743,0,0,1,.906.749,4.128,4.128,0,0,1,.618.935,4.473,4.473,0,0,1,.352,1.054,5.6,5.6,0,0,1,.111,1.105,5.654,5.654,0,0,1-.111,1.113,4.514,4.514,0,0,1-.352,1.059,4.156,4.156,0,0,1-.618.94,3.717,3.717,0,0,1-.906.751,4.665,4.665,0,0,1-1.223.5,6.808,6.808,0,0,1-3.126,0,4.712,4.712,0,0,1-1.223-.5,3.7,3.7,0,0,1-.908-.751,4.1,4.1,0,0,1-.616-.94,4.59,4.59,0,0,1-.35-1.059A5.658,5.658,0,0,1,770.127,277Zm7.985,0a3.514,3.514,0,0,0-.248-1.371,2.75,2.75,0,0,0-.68-.98,2.845,2.845,0,0,0-1.019-.588,4.2,4.2,0,0,0-2.535,0,2.835,2.835,0,0,0-1.019.588,2.715,2.715,0,0,0-.678.98,3.536,3.536,0,0,0-.246,1.371,3.584,3.584,0,0,0,.246,1.381,2.721,2.721,0,0,0,.678.986,2.806,2.806,0,0,0,1.019.59,4.192,4.192,0,0,0,2.535,0,2.815,2.815,0,0,0,1.019-.59,2.756,2.756,0,0,0,.68-.986A3.561,3.561,0,0,0,778.112,277Z" transform="translate(-742.744 -272.467)" fill="#003b87"/>
    <path id="Path_33" data-name="Path 33" d="M851.6,273.614h1.56v5.4a2.363,2.363,0,0,0,.166.931,1.661,1.661,0,0,0,.476.644,2.014,2.014,0,0,0,.745.375,3.626,3.626,0,0,0,.974.121,3.585,3.585,0,0,0,.969-.121,1.947,1.947,0,0,0,.738-.378,1.67,1.67,0,0,0,.47-.649,2.418,2.418,0,0,0,.164-.937v-5.388h1.564V279a3.34,3.34,0,0,1-.959,2.61,5.463,5.463,0,0,1-5.9,0A3.325,3.325,0,0,1,851.6,279Z" transform="translate(-809.588 -273.404)" fill="#003b87"/>
    <path id="Path_34" data-name="Path 34" d="M926.115,273.614h4.409a3.261,3.261,0,0,1,2.216.657,2.4,2.4,0,0,1,.744,1.9,3.279,3.279,0,0,1-.186,1.131,2.386,2.386,0,0,1-.55.877,2.456,2.456,0,0,1-.9.566,3.565,3.565,0,0,1-1.247.2h-2.907v3.326h-1.578Zm4.339,3.928a2.011,2.011,0,0,0,.7-.105,1.17,1.17,0,0,0,.454-.289,1.064,1.064,0,0,0,.246-.431,1.838,1.838,0,0,0,.073-.527,1.435,1.435,0,0,0-.078-.481.985.985,0,0,0-.235-.376,1.076,1.076,0,0,0-.392-.242,1.6,1.6,0,0,0-.55-.086h-2.978v2.538Z" transform="translate(-870.724 -273.404)" fill="#003b87"/>
  </g>
</svg>
