<?xml version="1.0" encoding="utf-8"?>
<!-- Generator: Adobe Illustrator 23.0.0, SVG Export Plug-In . SVG Version: 6.00 Build 0)  -->
<svg version="1.1" id="图层_1" xmlns="http://www.w3.org/2000/svg" xmlns:xlink="http://www.w3.org/1999/xlink" x="0px" y="0px"
	 viewBox="0 0 20 20" style="enable-background:new 0 0 20 20;" xml:space="preserve">
<style type="text/css">
	.st0{clip-path:url(#SVGID_2_);}
	.st1{fill:url(#XMLID_2_);}
	.st2{fill:url(#XMLID_3_);}
	.st3{clip-path:url(#SVGID_4_);}
	.st4{fill:url(#XMLID_4_);}
	.st5{fill:url(#XMLID_5_);}
	.st6{opacity:0.5;enable-background:new    ;}
	.st7{fill:#FFFFFF;}
</style>
<g id="XMLID_16_">
	<g id="XMLID_19_">
		<g>
			<g>
				<g>
					<defs>
						<path id="SVGID_1_" d="M14.2,1.3H5.8c-0.9,0-1.7,0.4-2.2,1.2L0.4,7.3c-0.7,1-0.5,2.4,0.3,3.3L8.2,18c1,1,2.6,1,3.7,0l7.4-7.4
							c0.9-0.9,1-2.2,0.3-3.3l-3.2-4.9C15.9,1.7,15.1,1.3,14.2,1.3z"/>
					</defs>
					<clipPath id="SVGID_2_">
						<use xlink:href="#SVGID_1_"  style="overflow:visible;"/>
					</clipPath>
					<g id="XMLID_24_" class="st0">
						
							<linearGradient id="XMLID_2_" gradientUnits="userSpaceOnUse" x1="10" y1="-811.024" x2="10" y2="-802.8689" gradientTransform="matrix(1 0 0 -1 0 -801.89)">
							<stop  offset="0" style="stop-color:#727E7E"/>
							<stop  offset="1" style="stop-color:#9BA9A9"/>
						</linearGradient>
						<polygon id="XMLID_26_" class="st1" points="15.8,1 4.2,1 -1.2,9.1 21.2,9.1 						"/>
						
							<linearGradient id="XMLID_3_" gradientUnits="userSpaceOnUse" x1="10" y1="-811.0241" x2="10" y2="-822.2241" gradientTransform="matrix(1 0 0 -1 0 -801.89)">
							<stop  offset="0" style="stop-color:#707C7C"/>
							<stop  offset="1" style="stop-color:#616D6D"/>
						</linearGradient>
						<polygon id="XMLID_25_" class="st2" points="-1.2,9.1 10,20.3 21.2,9.1 						"/>
					</g>
				</g>
			</g>
		</g>
		<g>
			<g>
				<g>
					<defs>
						<path id="SVGID_3_" d="M14.2,1.3H5.8c-0.9,0-1.7,0.4-2.2,1.2L0.4,7.3c-0.7,1-0.5,2.4,0.3,3.3L8.2,18c1,1,2.6,1,3.7,0l7.4-7.4
							c0.9-0.9,1-2.2,0.3-3.3l-3.2-4.9C15.9,1.7,15.1,1.3,14.2,1.3z"/>
					</defs>
					<clipPath id="SVGID_4_">
						<use xlink:href="#SVGID_3_"  style="overflow:visible;"/>
					</clipPath>
					<g id="XMLID_21_" class="st3">
						
							<linearGradient id="XMLID_4_" gradientUnits="userSpaceOnUse" x1="10" y1="-803.1425" x2="10" y2="-810.9425" gradientTransform="matrix(1 0 0 -1 0 -801.89)">
							<stop  offset="0" style="stop-color:#A4B2B2"/>
							<stop  offset="1" style="stop-color:#A8B6B6"/>
						</linearGradient>
						<polygon id="XMLID_23_" class="st4" points="10,1.3 2.3,9.1 10,9.1 17.7,9.1 						"/>
						
							<linearGradient id="XMLID_5_" gradientUnits="userSpaceOnUse" x1="10" y1="-810.945" x2="10" y2="-820.9636" gradientTransform="matrix(1 0 0 -1 0 -801.89)">
							<stop  offset="0" style="stop-color:#9BA8A8"/>
							<stop  offset="0.9946" style="stop-color:#899696"/>
						</linearGradient>
						<polygon id="XMLID_22_" class="st5" points="10,19.1 17.7,9.1 2.3,9.1 10,19.1 						"/>
					</g>
				</g>
			</g>
		</g>
	</g>
</g>
<g class="st6">
	<path class="st7" d="M10.8,5.4c0.9,0,1.5,0.2,2,0.7s0.7,1.1,0.7,2c0,0.2,0,0.5-0.1,0.9l-0.2,2c-0.2,1.2-0.5,2.1-1.1,2.7
		s-1.4,0.9-2.4,0.9H9.2c-0.9,0-1.6-0.2-2-0.7c-0.4-0.4-0.7-1.1-0.7-2c0-0.2,0-0.5,0.1-0.9l0.2-2c0.3-2.4,1.5-3.5,3.5-3.6H10.8z
		 M8,11c0,0.2,0,0.5,0,0.7c0,0.5,0.1,0.9,0.3,1.2c0.2,0.2,0.6,0.4,1.1,0.4h0.5c0.6,0,1-0.2,1.3-0.5c0.3-0.3,0.5-0.9,0.6-1.7L12,9
		c0-0.2,0-0.5,0-0.7c0-0.5-0.1-0.9-0.3-1.1c-0.2-0.2-0.6-0.4-1.1-0.4h-0.5C9.8,6.8,9.4,6.8,9.2,7C9,7.1,8.8,7.4,8.6,7.7
		C8.5,8,8.3,8.4,8.3,9L8,11z"/>
</g>
</svg>
