<?xml version="1.0" encoding="utf-8"?>
<!-- Generator: Adobe Illustrator 23.0.0, SVG Export Plug-In . SVG Version: 6.00 Build 0)  -->
<svg version="1.1" id="图层_1" xmlns="http://www.w3.org/2000/svg" xmlns:xlink="http://www.w3.org/1999/xlink" x="0px" y="0px"
	 viewBox="0 0 20 20" style="enable-background:new 0 0 20 20;" xml:space="preserve">
<style type="text/css">
	.st0{clip-path:url(#SVGID_2_);}
	.st1{fill:url(#XMLID_2_);}
	.st2{fill:url(#XMLID_3_);}
	.st3{clip-path:url(#SVGID_4_);}
	.st4{fill:url(#XMLID_4_);}
	.st5{fill:url(#XMLID_5_);}
	.st6{opacity:0.8;fill:#FFFFFF;}
</style>
<g id="XMLID_27_">
	<g id="XMLID_30_">
		<g>
			<g>
				<defs>
					<path id="SVGID_1_" d="M14.2,1.3H5.8c-0.9,0-1.7,0.4-2.2,1.2L0.4,7.3c-0.7,1-0.5,2.4,0.3,3.3L8.2,18c1,1,2.6,1,3.7,0l7.4-7.4
						c0.9-0.9,1-2.2,0.3-3.3l-3.2-4.9C15.9,1.7,15.1,1.3,14.2,1.3z"/>
				</defs>
				<clipPath id="SVGID_2_">
					<use xlink:href="#SVGID_1_"  style="overflow:visible;"/>
				</clipPath>
				<g id="XMLID_35_" class="st0">
					
						<linearGradient id="XMLID_2_" gradientUnits="userSpaceOnUse" x1="10" y1="-820.6911" x2="10" y2="-812.5359" gradientTransform="matrix(1 0 0 1 0 821.67)">
						<stop  offset="0" style="stop-color:#6A8BCF"/>
						<stop  offset="1" style="stop-color:#5377C3"/>
					</linearGradient>
					<polygon id="XMLID_37_" class="st1" points="15.8,1 4.2,1 -1.2,9.1 21.2,9.1 					"/>
					
						<linearGradient id="XMLID_3_" gradientUnits="userSpaceOnUse" x1="10" y1="-812.5359" x2="10" y2="-801.3359" gradientTransform="matrix(1 0 0 1 0 821.67)">
						<stop  offset="0" style="stop-color:#3A60B6"/>
						<stop  offset="1" style="stop-color:#365DB4"/>
					</linearGradient>
					<polygon id="XMLID_36_" class="st2" points="-1.2,9.1 10,20.3 21.2,9.1 					"/>
				</g>
			</g>
		</g>
		<g>
			<g>
				<defs>
					<path id="SVGID_3_" d="M14.2,1.3H5.8c-0.9,0-1.7,0.4-2.2,1.2L0.4,7.3c-0.7,1-0.5,2.4,0.3,3.3L8.2,18c1,1,2.6,1,3.7,0l7.4-7.4
						c0.9-0.9,1-2.2,0.3-3.3l-3.2-4.9C15.9,1.7,15.1,1.3,14.2,1.3z"/>
				</defs>
				<clipPath id="SVGID_4_">
					<use xlink:href="#SVGID_3_"  style="overflow:visible;"/>
				</clipPath>
				<g id="XMLID_32_" class="st3">
					
						<linearGradient id="XMLID_4_" gradientUnits="userSpaceOnUse" x1="10" y1="-820.4175" x2="10" y2="-812.6175" gradientTransform="matrix(1 0 0 1 0 821.67)">
						<stop  offset="0" style="stop-color:#86A5DE"/>
						<stop  offset="1" style="stop-color:#7797D6"/>
					</linearGradient>
					<polygon id="XMLID_34_" class="st4" points="10,1.3 2.3,9.1 10,9.1 17.7,9.1 					"/>
					
						<linearGradient id="XMLID_5_" gradientUnits="userSpaceOnUse" x1="10" y1="-812.6151" x2="10" y2="-802.5964" gradientTransform="matrix(1 0 0 1 0 821.67)">
						<stop  offset="0" style="stop-color:#688ACF"/>
						<stop  offset="1" style="stop-color:#7596D5"/>
					</linearGradient>
					<polygon id="XMLID_33_" class="st5" points="10,19.1 17.7,9.1 2.3,9.1 10,19.1 10,19.1 					"/>
				</g>
			</g>
		</g>
	</g>
</g>
<path class="st6" d="M8.1,8.1l0.2-1.4l2.4-1.2h1.2l-1.1,9H9.4l0.9-7.4L8.1,8.1z"/>
</svg>
