<?xml version="1.0" encoding="utf-8"?>
<!-- Generator: Adobe Illustrator 23.0.0, SVG Export Plug-In . SVG Version: 6.00 Build 0)  -->
<svg version="1.1" id="图层_1" xmlns="http://www.w3.org/2000/svg" xmlns:xlink="http://www.w3.org/1999/xlink" x="0px" y="0px"
	 viewBox="0 0 20 20" style="enable-background:new 0 0 20 20;" xml:space="preserve">
<style type="text/css">
	.st0{clip-path:url(#SVGID_2_);}
	.st1{fill:url(#XMLID_3_);}
	.st2{fill:#4891FF;}
	.st3{clip-path:url(#SVGID_4_);}
	.st4{fill:url(#XMLID_4_);}
	.st5{fill:url(#XMLID_8_);}
	.st6{opacity:0.8;fill:#FFFFFF;}
</style>
<g id="XMLID_1_">
	<g id="XMLID_5_">
		<g>
			<g>
				<g>
					<defs>
						<path id="SVGID_1_" d="M14.2,1.3H5.8c-0.9,0-1.7,0.4-2.2,1.2L0.4,7.3c-0.7,1-0.5,2.4,0.3,3.3L8.2,18c1,1,2.6,1,3.7,0l7.4-7.4
							c0.9-0.9,1-2.2,0.3-3.3l-3.2-4.9C15.9,1.7,15.1,1.3,14.2,1.3z"/>
					</defs>
					<clipPath id="SVGID_2_">
						<use xlink:href="#SVGID_1_"  style="overflow:visible;"/>
					</clipPath>
					<g id="XMLID_11_" class="st0">
						
							<linearGradient id="XMLID_3_" gradientUnits="userSpaceOnUse" x1="10" y1="10.935" x2="10" y2="19.035" gradientTransform="matrix(1 0 0 -1 0 20)">
							<stop  offset="0" style="stop-color:#48A7FF"/>
							<stop  offset="1" style="stop-color:#93EFFF"/>
						</linearGradient>
						<polygon id="XMLID_13_" class="st1" points="15.8,1 4.2,1 -1.2,9.1 21.2,9.1 						"/>
						<polygon id="XMLID_12_" class="st2" points="-1.2,9.1 10,20.3 21.2,9.1 						"/>
					</g>
				</g>
			</g>
		</g>
		<g>
			<g>
				<g>
					<defs>
						<path id="SVGID_3_" d="M14.2,1.3H5.8c-0.9,0-1.7,0.4-2.2,1.2L0.4,7.3c-0.7,1-0.5,2.4,0.3,3.3L8.2,18c1,1,2.6,1,3.7,0l7.4-7.4
							c0.9-0.9,1-2.2,0.3-3.3l-3.2-4.9C15.9,1.7,15.1,1.3,14.2,1.3z"/>
					</defs>
					<clipPath id="SVGID_4_">
						<use xlink:href="#SVGID_3_"  style="overflow:visible;"/>
					</clipPath>
					<g id="XMLID_6_" class="st3">
						
							<linearGradient id="XMLID_4_" gradientUnits="userSpaceOnUse" x1="10" y1="10.935" x2="10" y2="18.735" gradientTransform="matrix(1 0 0 -1 0 20)">
							<stop  offset="1.353187e-07" style="stop-color:#46BDFF"/>
							<stop  offset="0.8" style="stop-color:#91F4FF"/>
						</linearGradient>
						<polygon id="XMLID_9_" class="st4" points="10,1.3 2.3,9.1 10,9.1 17.7,9.1 						"/>
						
							<linearGradient id="XMLID_8_" gradientUnits="userSpaceOnUse" x1="10" y1="10.935" x2="10" y2="0.935" gradientTransform="matrix(1 0 0 -1 0 20)">
							<stop  offset="1.353187e-07" style="stop-color:#49BFFF"/>
							<stop  offset="0.8" style="stop-color:#4D94FF"/>
						</linearGradient>
						<polygon id="XMLID_7_" class="st5" points="10,19.1 17.7,9.1 2.3,9.1 10,19.1 						"/>
					</g>
				</g>
			</g>
		</g>
	</g>
</g>
<path class="st6" d="M11.4,7.2c-0.2-0.2-0.6-0.3-1.2-0.3C9.4,6.8,8.7,6.9,8,7l0.2-1.4C9,5.5,9.7,5.5,10.4,5.5c0.9,0,1.6,0.2,2.1,0.6
	c0.5,0.4,0.7,1,0.7,1.6c0,0.1,0,0.2,0,0.3C13,8.6,12.9,9,12.7,9.3c-0.2,0.3-0.5,0.6-0.8,0.9s-0.8,0.5-1.4,0.7
	c-0.4,0.2-0.7,0.4-1,0.5c-0.3,0.2-0.5,0.4-0.7,0.7c-0.2,0.3-0.3,0.6-0.4,1h4l-0.2,1.3H6.9l0.2-1.3c0.1-0.8,0.4-1.5,1-2
	c0.5-0.5,1.1-0.9,1.8-1.2c0.5-0.2,0.8-0.4,1-0.5s0.4-0.3,0.6-0.5c0.2-0.2,0.2-0.5,0.3-0.8C11.7,7.7,11.6,7.4,11.4,7.2z"/>
</svg>
