<?xml version="1.0" encoding="utf-8"?>
<!-- Generator: Adobe Illustrator 23.0.0, SVG Export Plug-In . SVG Version: 6.00 Build 0)  -->
<svg version="1.1" id="图层_1" xmlns="http://www.w3.org/2000/svg" xmlns:xlink="http://www.w3.org/1999/xlink" x="0px" y="0px"
	 viewBox="0 0 20 20" style="enable-background:new 0 0 20 20;" xml:space="preserve">
<style type="text/css">
	.st0{clip-path:url(#SVGID_2_);}
	.st1{fill:url(#XMLID_2_);}
	.st2{fill:url(#XMLID_3_);}
	.st3{clip-path:url(#SVGID_4_);}
	.st4{fill:url(#XMLID_4_);}
	.st5{fill:url(#XMLID_5_);}
	.st6{opacity:0.8;fill:#FFFFFF;}
</style>
<g id="XMLID_38_">
	<g id="XMLID_41_">
		<g>
			<g>
				<defs>
					<path id="SVGID_1_" d="M14.2,1.3H5.8c-0.9,0-1.7,0.4-2.2,1.2L0.4,7.3c-0.7,1-0.5,2.4,0.3,3.3L8.2,18c1,1,2.6,1,3.7,0l7.4-7.4
						c0.9-0.9,1-2.2,0.3-3.3l-3.2-4.9C15.9,1.7,15.1,1.3,14.2,1.3z"/>
				</defs>
				<clipPath id="SVGID_2_">
					<use xlink:href="#SVGID_1_"  style="overflow:visible;"/>
				</clipPath>
				<g id="XMLID_46_" class="st0">
					
						<linearGradient id="XMLID_2_" gradientUnits="userSpaceOnUse" x1="10" y1="-820.6911" x2="10" y2="-812.5359" gradientTransform="matrix(1 0 0 1 0 821.67)">
						<stop  offset="0" style="stop-color:#E6B961"/>
						<stop  offset="1" style="stop-color:#CC9A38"/>
					</linearGradient>
					<polygon id="XMLID_48_" class="st1" points="15.8,1 4.2,1 -1.2,9.1 21.2,9.1 					"/>
					
						<linearGradient id="XMLID_3_" gradientUnits="userSpaceOnUse" x1="10" y1="-812.5359" x2="10" y2="-801.3359" gradientTransform="matrix(1 0 0 1 0 821.67)">
						<stop  offset="0" style="stop-color:#C4902A"/>
						<stop  offset="1" style="stop-color:#D4A344"/>
					</linearGradient>
					<polygon id="XMLID_47_" class="st2" points="-1.2,9.1 10,20.3 21.2,9.1 					"/>
				</g>
			</g>
		</g>
		<g>
			<g>
				<defs>
					<path id="SVGID_3_" d="M14.2,1.3H5.8c-0.9,0-1.7,0.4-2.2,1.2L0.4,7.3c-0.7,1-0.5,2.4,0.3,3.3L8.2,18c1,1,2.6,1,3.7,0l7.4-7.4
						c0.9-0.9,1-2.2,0.3-3.3l-3.2-4.9C15.9,1.7,15.1,1.3,14.2,1.3z"/>
				</defs>
				<clipPath id="SVGID_4_">
					<use xlink:href="#SVGID_3_"  style="overflow:visible;"/>
				</clipPath>
				<g id="XMLID_43_" class="st3">
					
						<linearGradient id="XMLID_4_" gradientUnits="userSpaceOnUse" x1="10" y1="-820.4175" x2="10" y2="-812.6175" gradientTransform="matrix(1 0 0 1 0 821.67)">
						<stop  offset="0" style="stop-color:#EABD67"/>
						<stop  offset="1" style="stop-color:#EBBF69"/>
					</linearGradient>
					<polygon id="XMLID_45_" class="st4" points="10,1.3 2.3,9.1 10,9.1 17.7,9.1 					"/>
					
						<linearGradient id="XMLID_5_" gradientUnits="userSpaceOnUse" x1="10" y1="-812.6151" x2="10" y2="-802.5964" gradientTransform="matrix(1 0 0 1 0 821.67)">
						<stop  offset="0" style="stop-color:#E1B359"/>
						<stop  offset="1" style="stop-color:#DCAD51"/>
					</linearGradient>
					<polygon id="XMLID_44_" class="st5" points="10,19.1 17.7,9.1 2.3,9.1 10,19.1 10,19.1 					"/>
				</g>
			</g>
		</g>
	</g>
</g>
<path class="st6" d="M12.4,6.1c0.5,0.4,0.6,1,0.6,1.8l0,0.4c-0.1,0.8-0.5,1.3-1.2,1.6c0.7,0.3,1.1,0.8,1.1,1.7c0,0.1,0,0.2,0,0.4
	l0,0.3c-0.1,0.8-0.4,1.4-1,1.7c-0.6,0.4-1.4,0.5-2.5,0.5c-0.7,0-1.4,0-2.2-0.1L7.2,13c0.5,0.1,0.9,0.1,1.2,0.1s0.6,0,1.1,0
	c0.6,0,1.1-0.1,1.4-0.3c0.3-0.2,0.4-0.4,0.5-0.8l0-0.3c0,0,0-0.1,0-0.2c0-0.4-0.1-0.6-0.3-0.8c-0.2-0.2-0.6-0.2-1.1-0.3H8.3l0.2-1.3
	H10c0.5,0,0.8-0.1,1.1-0.2c0.2-0.2,0.4-0.4,0.5-0.8l0-0.4l0-0.1c0-0.3-0.1-0.5-0.4-0.7C11,6.9,10.6,6.8,10,6.8c-0.7,0-1.5,0-2.2,0.1
	L8,5.6c0.7,0,1.4-0.1,2.1-0.1C11.2,5.5,11.9,5.7,12.4,6.1z"/>
</svg>
