<?xml version="1.0" encoding="utf-8"?>
<!-- Generator: Adobe Illustrator 23.0.0, SVG Export Plug-In . SVG Version: 6.00 Build 0)  -->
<svg version="1.1" id="图层_1" xmlns="http://www.w3.org/2000/svg" xmlns:xlink="http://www.w3.org/1999/xlink" x="0px" y="0px"
	 viewBox="0 0 20 20" style="enable-background:new 0 0 20 20;" xml:space="preserve">
<style type="text/css">
	.st0{clip-path:url(#SVGID_2_);}
	.st1{fill:url(#XMLID_2_);}
	.st2{fill:#448C4A;}
	.st3{clip-path:url(#SVGID_4_);}
	.st4{fill:#6BB67C;}
	.st5{fill:#67B178;}
	.st6{opacity:0.8;enable-background:new    ;}
	.st7{fill:#FFFFFF;}
</style>
<g id="XMLID_38_">
	<g id="XMLID_41_">
		<g>
			<g>
				<g>
					<g>
						<defs>
							<path id="SVGID_1_" d="M14.2,1.3H5.8c-0.9,0-1.7,0.4-2.2,1.2L0.4,7.3c-0.7,1-0.5,2.4,0.3,3.3L8.2,18c1,1,2.6,1,3.7,0l7.4-7.4
								c0.9-0.9,1-2.2,0.3-3.3l-3.2-4.9C15.9,1.7,15.1,1.3,14.2,1.3z"/>
						</defs>
						<clipPath id="SVGID_2_">
							<use xlink:href="#SVGID_1_"  style="overflow:visible;"/>
						</clipPath>
						<g id="XMLID_46_" class="st0">
							
								<linearGradient id="XMLID_2_" gradientUnits="userSpaceOnUse" x1="10" y1="57.2851" x2="10" y2="49.1299" gradientTransform="matrix(1 0 0 1 0 -48.22)">
								<stop  offset="1.353187e-07" style="stop-color:#448C4A"/>
								<stop  offset="1" style="stop-color:#399E75"/>
							</linearGradient>
							<polygon id="XMLID_48_" class="st1" points="15.8,1 4.2,1 -1.2,9.1 21.2,9.1 							"/>
							<polygon id="XMLID_47_" class="st2" points="-1.2,9.1 10,20.3 21.2,9.1 							"/>
						</g>
					</g>
				</g>
			</g>
		</g>
		<g>
			<g>
				<g>
					<g>
						<defs>
							<path id="SVGID_3_" d="M14.2,1.3H5.8c-0.9,0-1.7,0.4-2.2,1.2L0.4,7.3c-0.7,1-0.5,2.4,0.3,3.3L8.2,18c1,1,2.6,1,3.7,0l7.4-7.4
								c0.9-0.9,1-2.2,0.3-3.3l-3.2-4.9C15.9,1.7,15.1,1.3,14.2,1.3z"/>
						</defs>
						<clipPath id="SVGID_4_">
							<use xlink:href="#SVGID_3_"  style="overflow:visible;"/>
						</clipPath>
						<g id="XMLID_43_" class="st3">
							<polygon id="XMLID_45_" class="st4" points="10,1.3 2.3,9.1 10,9.1 17.7,9.1 							"/>
							<polygon id="XMLID_44_" class="st5" points="10,19.1 17.7,9.1 2.3,9.1 							"/>
						</g>
					</g>
				</g>
			</g>
		</g>
	</g>
</g>
<g class="st6">
	<path class="st7" d="M7.7,10.3L7.7,10.3l0.6-4.8h4.5l-0.1,1.3H9.4L9.2,9H10c1.8,0,2.6,0.7,2.6,2.1c0,0.2,0,0.3,0,0.3l-0.1,0.9
		c-0.1,0.8-0.4,1.4-0.9,1.7c-0.5,0.4-1.3,0.5-2.3,0.5c-0.6,0-1.3,0-2-0.1L7.4,13c0.4,0,0.7,0.1,1,0.1c0.3,0,0.6,0,1,0
		c0.6,0,1-0.1,1.3-0.3c0.3-0.2,0.4-0.4,0.5-0.8l0.1-0.6c0-0.4-0.1-0.7-0.3-0.9s-0.6-0.3-1.2-0.3H7.7z"/>
</g>
</svg>
