<?xml version="1.0" encoding="utf-8"?>
<!-- Generator: Adobe Illustrator 23.0.0, SVG Export Plug-In . SVG Version: 6.00 Build 0)  -->
<svg version="1.1" id="图层_1" xmlns="http://www.w3.org/2000/svg" xmlns:xlink="http://www.w3.org/1999/xlink" x="0px" y="0px"
	 viewBox="0 0 20 20" style="enable-background:new 0 0 20 20;" xml:space="preserve">
<style type="text/css">
	.st0{clip-path:url(#SVGID_2_);}
	.st1{fill:url(#XMLID_2_);}
	.st2{fill:url(#XMLID_3_);}
	.st3{clip-path:url(#SVGID_4_);}
	.st4{fill:url(#XMLID_4_);}
	.st5{fill:url(#XMLID_5_);}
	.st6{opacity:0.8;}
	.st7{fill:#FFFFFF;}
</style>
<g id="XMLID_12_">
	<g id="XMLID_15_">
		<g>
			<g>
				<defs>
					<path id="SVGID_1_" d="M14.2,1.3H5.8c-0.9,0-1.7,0.4-2.2,1.2L0.4,7.3c-0.7,1-0.5,2.4,0.3,3.3L8.2,18c1,1,2.6,1,3.7,0l7.4-7.4
						c0.9-0.9,1-2.2,0.3-3.3l-3.2-4.9C15.9,1.7,15.1,1.3,14.2,1.3z"/>
				</defs>
				<clipPath id="SVGID_2_">
					<use xlink:href="#SVGID_1_"  style="overflow:visible;"/>
				</clipPath>
				<g id="XMLID_53_" class="st0">
					
						<linearGradient id="XMLID_2_" gradientUnits="userSpaceOnUse" x1="10" y1="-812.5359" x2="10" y2="-820.6911" gradientTransform="matrix(1 0 0 1 0 821.67)">
						<stop  offset="0" style="stop-color:#D55532"/>
						<stop  offset="1" style="stop-color:#F7886A"/>
					</linearGradient>
					<polygon id="XMLID_55_" class="st1" points="15.8,1 4.2,1 -1.2,9.1 21.2,9.1 					"/>
					
						<linearGradient id="XMLID_3_" gradientUnits="userSpaceOnUse" x1="10" y1="-812.5359" x2="10" y2="-801.3359" gradientTransform="matrix(1 0 0 1 0 821.67)">
						<stop  offset="0" style="stop-color:#B7391D"/>
						<stop  offset="1" style="stop-color:#D36243"/>
					</linearGradient>
					<polygon id="XMLID_54_" class="st2" points="-1.2,9.1 10,20.3 21.2,9.1 					"/>
				</g>
			</g>
		</g>
		<g>
			<g>
				<defs>
					<path id="SVGID_3_" d="M14.2,1.3H5.8c-0.9,0-1.7,0.4-2.2,1.2L0.4,7.3c-0.7,1-0.5,2.4,0.3,3.3L8.2,18c1,1,2.6,1,3.7,0l7.4-7.4
						c0.9-0.9,1-2.2,0.3-3.3l-3.2-4.9C15.9,1.7,15.1,1.3,14.2,1.3z"/>
				</defs>
				<clipPath id="SVGID_4_">
					<use xlink:href="#SVGID_3_"  style="overflow:visible;"/>
				</clipPath>
				<g id="XMLID_50_" class="st3">
					
						<linearGradient id="XMLID_4_" gradientUnits="userSpaceOnUse" x1="10" y1="-820.4175" x2="10" y2="-812.6175" gradientTransform="matrix(1 0 0 1 0 821.67)">
						<stop  offset="0" style="stop-color:#FDC5BA"/>
						<stop  offset="1" style="stop-color:#F2775A"/>
					</linearGradient>
					<polygon id="XMLID_52_" class="st4" points="10,1.3 2.3,9.1 10,9.1 17.7,9.1 					"/>
					
						<linearGradient id="XMLID_5_" gradientUnits="userSpaceOnUse" x1="10" y1="-812.6151" x2="10" y2="-802.5964" gradientTransform="matrix(1 0 0 1 0 821.67)">
						<stop  offset="0" style="stop-color:#E76644"/>
						<stop  offset="0.9946" style="stop-color:#F29579"/>
					</linearGradient>
					<polygon id="XMLID_51_" class="st5" points="17.7,9.1 2.3,9.1 10,19.1 					"/>
				</g>
			</g>
		</g>
	</g>
</g>
<g class="st6">
	<path class="st7" d="M9.5,6.3C9,6.7,8.7,7.3,8.6,8.1l0,0.1C8.9,8,9.4,7.9,10.1,7.9h0.7c0.7,0,1.3,0.2,1.6,0.5
		C12.8,8.7,13,9.2,13,9.9c0,0.2,0,0.3,0,0.4L13,10.9c-0.1,1-0.4,1.7-0.9,2.1c-0.5,0.4-1.2,0.6-2.1,0.6H9.6c-0.9,0-1.6-0.2-2-0.6
		S7,12,7,11.1c0-0.4,0-0.7,0.1-1l0.2-1.7c0.2-1.3,0.6-2.3,1.4-2.9c0.7-0.7,1.8-1,3.2-1c0.3,0,0.7,0,1.1,0l-0.2,1.3
		c-0.4,0-0.7-0.1-1.1-0.1C10.8,5.8,10.1,5.9,9.5,6.3z M8.3,10.7c0,0.1,0,0.2,0,0.3c0,0.3,0,0.6,0.1,0.7c0.1,0.2,0.2,0.3,0.5,0.4
		c0.2,0.1,0.5,0.1,0.9,0.1c0.4,0,0.8,0,1-0.1s0.4-0.2,0.6-0.4c0.1-0.2,0.2-0.5,0.2-0.8l0-0.5c0-0.4,0-0.7-0.2-0.9
		c-0.2-0.2-0.5-0.3-1-0.3H9.7c-0.4,0-0.8,0.1-1,0.3C8.5,9.7,8.4,10,8.3,10.4L8.3,10.7z"/>
</g>
</svg>
