<?xml version="1.0" encoding="utf-8"?>
<!-- Generator: Adobe Illustrator 23.0.0, SVG Export Plug-In . SVG Version: 6.00 Build 0)  -->
<svg version="1.1" id="图层_1" xmlns="http://www.w3.org/2000/svg" xmlns:xlink="http://www.w3.org/1999/xlink" x="0px" y="0px"
	 viewBox="0 0 20 20" style="enable-background:new 0 0 20 20;" xml:space="preserve">
<style type="text/css">
	.st0{clip-path:url(#SVGID_2_);}
	.st1{fill:url(#XMLID_2_);}
	.st2{fill:url(#XMLID_3_);}
	.st3{clip-path:url(#SVGID_4_);}
	.st4{fill:#DEB7B8;}
	.st5{opacity:0.8;fill:#FFFFFF;}
</style>
<g id="XMLID_38_">
	<g id="XMLID_41_">
		<g>
			<g>
				<g>
					<g>
						<defs>
							<path id="SVGID_1_" d="M14.2,1.3H5.8c-0.9,0-1.7,0.4-2.2,1.2L0.4,7.3c-0.7,1-0.5,2.4,0.3,3.3L8.2,18c1,1,2.6,1,3.7,0l7.4-7.4
								c0.9-0.9,1-2.2,0.3-3.3l-3.2-4.9C15.9,1.7,15.1,1.3,14.2,1.3z"/>
						</defs>
						<clipPath id="SVGID_2_">
							<use xlink:href="#SVGID_1_"  style="overflow:visible;"/>
						</clipPath>
						<g id="XMLID_46_" class="st0">
							
								<linearGradient id="XMLID_2_" gradientUnits="userSpaceOnUse" x1="10" y1="-812.4199" x2="10" y2="-820.5751" gradientTransform="matrix(1 0 0 1 0 821.45)">
								<stop  offset="2.706373e-07" style="stop-color:#AE8082"/>
								<stop  offset="1" style="stop-color:#CDA2A3"/>
							</linearGradient>
							<polygon id="XMLID_48_" class="st1" points="15.8,1 4.2,1 -1.2,9.1 21.2,9.1 							"/>
							
								<linearGradient id="XMLID_3_" gradientUnits="userSpaceOnUse" x1="10" y1="-801.44" x2="10" y2="-812.64" gradientTransform="matrix(1 0 0 1 0 821.67)">
								<stop  offset="1.320968e-07" style="stop-color:#A96B7B"/>
								<stop  offset="1" style="stop-color:#BE8C8D"/>
							</linearGradient>
							<polygon id="XMLID_47_" class="st2" points="-1.2,9.1 10,20.3 21.2,9.1 							"/>
						</g>
					</g>
				</g>
			</g>
		</g>
		<g>
			<g>
				<g>
					<g>
						<defs>
							<path id="SVGID_3_" d="M14.2,1.3H5.8c-0.9,0-1.7,0.4-2.2,1.2L0.4,7.3c-0.7,1-0.5,2.4,0.3,3.3L8.2,18c1,1,2.6,1,3.7,0l7.4-7.4
								c0.9-0.9,1-2.2,0.3-3.3l-3.2-4.9C15.9,1.7,15.1,1.3,14.2,1.3z"/>
						</defs>
						<clipPath id="SVGID_4_">
							<use xlink:href="#SVGID_3_"  style="overflow:visible;"/>
						</clipPath>
						<g id="XMLID_43_" class="st3">
							<polygon id="XMLID_45_" class="st4" points="10,1.3 2.3,9.1 10,9.1 17.7,9.1 							"/>
							<polygon id="XMLID_44_" class="st4" points="10,19.1 17.7,9.1 2.3,9.1 							"/>
						</g>
					</g>
				</g>
			</g>
		</g>
	</g>
</g>
<path class="st5" d="M7,6.8l0.2-1.3H13l-0.1,1.1l-4.2,7.9H7l4.1-7.7H7z"/>
</svg>
