<?xml version="1.0" encoding="UTF-8"?>
<svg width="12px" height="12px" viewBox="0 0 12 12" version="1.1" xmlns="http://www.w3.org/2000/svg" xmlns:xlink="http://www.w3.org/1999/xlink">
    <!-- Generator: Sketch 63.1 (92452) - https://sketch.com -->
    <title>复选框选中备份</title>
    <desc>Created with Sketch.</desc>
    <g id="页面-1" stroke="none" stroke-width="1" fill="none" fill-rule="evenodd">
        <g id="编组-63" transform="translate(-2.000000, -2.000000)" fill-rule="nonzero">
            <g id="复选框选中备份">
                <rect id="矩形" fill="#000000" opacity="0" x="0" y="0" width="16" height="16"/>
                <path d="M4.52823386,2.50382541 C3.96923262,2.50382541 3.46312596,2.73044552 3.09677267,3.09683826 C2.7304188,3.46323157 2.50381741,3.96939921 2.50381741,4.52851367 L2.50381741,11.4714703 C2.50381741,12.0305377 2.73044062,12.5367143 3.09681196,12.9031251 C3.46316077,13.2695133 3.96924966,13.4961586 4.52823386,13.4961586 L11.4711745,13.4961586 C12.0303711,13.4961586 12.5366186,13.2695202 12.9030718,12.9031134 C13.2695218,12.5367098 13.4961826,12.0305372 13.4961826,11.4714703 L13.4961826,4.52851367 C13.4961826,4.24005314 13.4338496,3.96330679 13.1736539,3.72247441 C12.9020641,3.47109596 12.4602169,3.2624332 11.7821776,3.08162974 C10.4149825,2.71705854 8.17130624,2.50382541 4.52823386,2.50382541 Z" id="形状" stroke="#E8E8EB"/>
            </g>
        </g>
    </g>
</svg>