<svg width="17" height="17" viewBox="0 0 17 17" fill="none" xmlns="http://www.w3.org/2000/svg">
<path d="M12.6544 8.41475C12.5547 8.50441 12.4248 8.55305 12.2907 8.55093C12.1567 8.5488 12.0284 8.49607 11.9316 8.4033C11.8348 8.31053 11.7766 8.18459 11.7688 8.05075C11.761 7.9169 11.804 7.78504 11.8894 7.68163L12.8137 6.71475C13.1463 6.30354 13.3105 5.78142 13.273 5.25387C13.2355 4.72631 12.9992 4.23264 12.6119 3.87256C11.8097 3.0385 10.625 2.96412 9.95562 3.66538L7.37374 6.37475C7.04114 6.78596 6.877 7.30808 6.91447 7.83564C6.95194 8.36319 7.18824 8.85687 7.57562 9.21694C7.67456 9.31648 7.7301 9.45112 7.7301 9.59147C7.7301 9.73182 7.67456 9.86647 7.57562 9.966C7.52623 10.0158 7.46748 10.0553 7.40274 10.0823C7.338 10.1093 7.26856 10.1231 7.19843 10.1231C7.1283 10.1231 7.05886 10.1093 6.99412 10.0823C6.92939 10.0553 6.87063 10.0158 6.82124 9.966C6.24482 9.40886 5.90291 8.65263 5.86539 7.85184C5.82787 7.05105 6.09756 6.26616 6.61937 5.65756L9.20124 2.96412C10.3116 1.806 12.1975 1.90162 13.3981 3.17662C13.9587 3.73357 14.2891 4.48114 14.3236 5.27061C14.358 6.06008 14.094 6.83359 13.5841 7.43725L12.6544 8.41475Z" fill="black" fill-opacity="0.6"/>
<path d="M3.81439 8.58535C3.91408 8.49569 4.04399 8.44705 4.17804 8.44917C4.3121 8.45129 4.4404 8.50403 4.5372 8.5968C4.63401 8.68957 4.69215 8.81551 4.69997 8.94935C4.7078 9.0832 4.66472 9.21506 4.57939 9.31847L3.65501 10.2853C3.32241 10.6966 3.15827 11.2187 3.19574 11.7462C3.23321 12.2738 3.46951 12.7675 3.85689 13.1275C4.65908 13.9616 5.84376 14.036 6.51314 13.3347L9.09501 10.6253C9.42761 10.2141 9.59175 9.69202 9.55428 9.16446C9.51681 8.63691 9.28052 8.14323 8.89314 7.78316C8.79419 7.68362 8.73865 7.54898 8.73865 7.40863C8.73865 7.26828 8.79419 7.13363 8.89314 7.0341C8.94252 6.9843 9.00128 6.94478 9.06602 6.91781C9.13076 6.89084 9.20019 6.87695 9.27033 6.87695C9.34046 6.87695 9.40989 6.89084 9.47463 6.91781C9.53937 6.94478 9.59813 6.9843 9.64751 7.0341C10.2239 7.59124 10.5658 8.34747 10.6034 9.14826C10.6409 9.94905 10.3712 10.7339 9.84939 11.3425L7.26751 14.036C6.1572 15.1941 4.27126 15.0985 3.07064 13.8235C2.51005 13.2665 2.17966 12.519 2.1452 11.7295C2.11075 10.94 2.37476 10.1665 2.8847 9.56285L3.81439 8.58535Z" fill="black" fill-opacity="0.6"/>
</svg>