<svg width="16" height="16" viewBox="0 0 16 16" fill="none" xmlns="http://www.w3.org/2000/svg">
<path d="M12.6544 7.41475C12.5547 7.50441 12.4248 7.55305 12.2907 7.55093C12.1567 7.5488 12.0284 7.49607 11.9316 7.4033C11.8348 7.31053 11.7766 7.18459 11.7688 7.05074C11.761 6.9169 11.804 6.78504 11.8894 6.68163L12.8137 5.71475C13.1463 5.30354 13.3105 4.78142 13.273 4.25387C13.2355 3.72631 12.9992 3.23264 12.6119 2.87256C11.8097 2.0385 10.625 1.96412 9.95562 2.66538L7.37374 5.37475C7.04114 5.78596 6.877 6.30808 6.91447 6.83564C6.95194 7.36319 7.18824 7.85687 7.57562 8.21694C7.67456 8.31648 7.7301 8.45112 7.7301 8.59147C7.7301 8.73182 7.67456 8.86647 7.57562 8.966C7.52623 9.0158 7.46748 9.05532 7.40274 9.08229C7.338 9.10926 7.26856 9.12314 7.19843 9.12314C7.1283 9.12314 7.05886 9.10926 6.99412 9.08229C6.92939 9.05532 6.87063 9.0158 6.82124 8.966C6.24482 8.40886 5.90291 7.65263 5.86539 6.85184C5.82787 6.05105 6.09756 5.26616 6.61937 4.65756L9.20124 1.96412C10.3116 0.805999 12.1975 0.901624 13.3981 2.17662C13.9587 2.73357 14.2891 3.48114 14.3236 4.27061C14.358 5.06008 14.094 5.83359 13.5841 6.43725L12.6544 7.41475Z" fill="#24BE48"/>
<path d="M3.81439 7.58535C3.91408 7.49569 4.04399 7.44705 4.17804 7.44917C4.3121 7.45129 4.4404 7.50403 4.5372 7.5968C4.634 7.68957 4.69215 7.81551 4.69997 7.94935C4.7078 8.0832 4.66472 8.21506 4.57939 8.31847L3.65501 9.28535C3.32241 9.69656 3.15827 10.2187 3.19574 10.7462C3.23321 11.2738 3.46951 11.7675 3.85689 12.1275C4.65908 12.9616 5.84376 13.036 6.51314 12.3347L9.09501 9.62535C9.42761 9.21413 9.59175 8.69202 9.55428 8.16446C9.51681 7.63691 9.28052 7.14323 8.89314 6.78316C8.79419 6.68362 8.73865 6.54898 8.73865 6.40863C8.73865 6.26828 8.79419 6.13363 8.89314 6.0341C8.94252 5.9843 9.00128 5.94478 9.06602 5.91781C9.13076 5.89084 9.20019 5.87695 9.27033 5.87695C9.34046 5.87695 9.40989 5.89084 9.47463 5.91781C9.53937 5.94478 9.59813 5.9843 9.64751 6.0341C10.2239 6.59124 10.5658 7.34747 10.6034 8.14826C10.6409 8.94905 10.3712 9.73394 9.84939 10.3425L7.26751 13.036C6.1572 14.1941 4.27126 14.0985 3.07064 12.8235C2.51005 12.2665 2.17966 11.519 2.1452 10.7295C2.11075 9.94002 2.37476 9.16651 2.8847 8.56285L3.81439 7.58535Z" fill="#24BE48"/>
</svg>