<svg width="14" height="15" viewBox="0 0 14 15" fill="none" xmlns="http://www.w3.org/2000/svg">
<g opacity="0.6">
<g clip-path="url(#clip0)">
<path d="M10.0611 2.34708H12.6847C12.9267 2.34708 13.1222 2.55655 13.1222 2.81583V12.1835C13.1222 12.4428 12.9267 12.6523 12.6847 12.6523H10.0611V13.518C10.0611 13.7773 9.86558 13.9867 9.62358 13.9867C9.60308 13.9867 9.58257 13.9853 9.56206 13.9823L1.25366 12.7108C1.03765 12.6786 0.877686 12.4809 0.877686 12.2465V2.7543C0.877686 2.52139 1.03765 2.32364 1.25366 2.28995L9.56206 1.01846C9.80132 0.981842 10.0228 1.15909 10.057 1.41544C10.0597 1.43741 10.0611 1.45938 10.0611 1.48135V2.34708ZM10.0611 3.28458V11.7162H12.2472V3.28458H10.0611ZM1.86206 3.2626V11.7397L9.07671 12.8441V2.15811L1.86206 3.2626ZM5.03257 5.04092H5.90757L6.78257 8.31925L7.65757 5.04092H8.53257L7.22007 9.9584H6.34507L5.47007 6.68008L4.59507 9.9584V9.95987H3.72007L2.40894 5.04092H3.28394L4.15894 8.31925L5.03257 5.04092Z" fill="black"/>
</g>
</g>
<defs>
<clipPath id="clip0">
<rect width="14" height="15" fill="white"/>
</clipPath>
</defs>
</svg>